<svg width="48" height="48" viewBox="0 0 48 48" fill="none" xmlns="http://www.w3.org/2000/svg">
<path d="M24.0432 0.179688C10.8147 0.179688 0.0876465 11.0876 0.0876465 24.5442C0.0876465 35.3093 6.95165 44.4423 16.4699 47.6641C17.6671 47.8896 18.1067 47.1355 18.1067 46.492C18.1067 45.911 18.0845 43.9917 18.0742 41.9557C11.4097 43.4296 10.0034 39.081 10.0034 39.081C8.9137 36.2647 7.34358 35.5159 7.34358 35.5159C5.17009 34.0037 7.50742 34.0347 7.50742 34.0347C9.91297 34.2062 11.1796 36.5456 11.1796 36.5456C13.3162 40.2704 16.7837 39.1936 18.1507 38.571C18.3657 36.9966 18.9866 35.921 19.6716 35.3129C14.3508 34.6968 8.7574 32.6077 8.7574 23.2717C8.7574 20.6116 9.6932 18.4381 11.2256 16.7318C10.9769 16.1177 10.1569 13.64 11.4577 10.2839C11.4577 10.2839 13.4693 9.62904 18.0472 12.7814C19.9581 12.2415 22.0074 11.9708 24.0432 11.9615C26.0791 11.9708 28.13 12.2415 30.0444 12.7814C34.6167 9.62904 36.6256 10.2839 36.6256 10.2839C37.9295 13.64 37.1091 16.1177 36.8604 16.7318C38.3964 18.4381 39.3259 20.6116 39.3259 23.2717C39.3259 32.6298 33.7218 34.6904 28.3874 35.2936C29.2467 36.0497 30.0123 37.5324 30.0123 39.8056C30.0123 43.0653 29.9845 45.6891 29.9845 46.492C29.9845 47.1404 30.4157 47.9001 31.63 47.6608C41.1431 44.4355 47.9984 35.3057 47.9984 24.5442C47.9984 11.0876 37.273 0.179688 24.0432 0.179688" fill="black"/>
<path d="M9.16085 35.1621C9.10809 35.2835 8.92085 35.3195 8.75027 35.2363C8.57652 35.1569 8.47893 34.9918 8.53526 34.8704C8.58683 34.7457 8.77447 34.7114 8.94782 34.7941C9.12197 34.874 9.22115 35.0407 9.16085 35.1621" fill="black"/>
<path d="M10.131 36.2625C10.0168 36.3702 9.79346 36.3202 9.64192 36.1499C9.48523 35.9801 9.45587 35.7529 9.57171 35.6436C9.68953 35.5359 9.90612 35.5863 10.0632 35.7561C10.2199 35.928 10.2505 36.1536 10.131 36.2625" fill="black"/>
<path d="M11.0757 37.6664C10.929 37.7701 10.689 37.6729 10.5406 37.4562C10.3938 37.2396 10.3938 36.9797 10.5438 36.8756C10.6925 36.7715 10.929 36.8651 11.0793 37.0802C11.2257 37.3001 11.2257 37.5603 11.0757 37.6664" fill="black"/>
<path d="M12.3698 39.0219C12.2385 39.1692 11.9588 39.1297 11.7541 38.9287C11.5446 38.7322 11.4863 38.4534 11.618 38.3062C11.7509 38.1585 12.0322 38.2001 12.2385 38.3994C12.4463 38.5955 12.5098 38.8763 12.3698 39.0219" fill="black"/>
<path d="M14.1549 39.8085C14.097 39.9994 13.8276 40.0861 13.5563 40.005C13.2853 39.9215 13.108 39.698 13.1628 39.5051C13.2191 39.3131 13.4896 39.2227 13.763 39.3094C14.0335 39.3926 14.2112 39.6145 14.1549 39.8085" fill="black"/>
<path d="M16.1154 39.9552C16.1221 40.1561 15.892 40.3228 15.6072 40.326C15.3208 40.3329 15.0891 40.1703 15.0859 39.9726C15.0859 39.7696 15.3109 39.6046 15.5973 39.5998C15.8821 39.5941 16.1154 39.7555 16.1154 39.9552" fill="black"/>
<path d="M17.9396 39.6389C17.9737 39.835 17.7757 40.0364 17.4929 40.0896C17.2148 40.1417 16.9574 40.0206 16.9221 39.8262C16.8876 39.6252 17.0891 39.4239 17.3668 39.3718C17.65 39.3218 17.9035 39.4396 17.9396 39.6389" fill="black"/>
</svg>
