<svg width="48" height="48" viewBox="0 0 48 48" fill="none" xmlns="http://www.w3.org/2000/svg">
<path fill-rule="evenodd" clip-rule="evenodd" d="M24 0C10.7452 0 0 10.7452 0 24C0 37.2548 10.7452 48 24 48C37.2548 48 48 37.2548 48 24C48 10.7452 37.2548 0 24 0ZM18.5233 11.0773C19.8886 11.0152 20.3249 11 23.8012 11H23.7972C27.2746 11 27.7092 11.0152 29.0746 11.0773C30.4373 11.1397 31.3679 11.3555 32.184 11.672C33.0266 11.9987 33.7386 12.436 34.4506 13.148C35.1627 13.8595 35.6 14.5736 35.928 15.4155C36.2427 16.2294 36.4587 17.1595 36.5227 18.5222C36.584 19.8876 36.6 20.3238 36.6 23.8001C36.6 27.2764 36.584 27.7116 36.5227 29.077C36.4587 30.4391 36.2427 31.3695 35.928 32.1837C35.6 33.0253 35.1627 33.7394 34.4506 34.4509C33.7394 35.1629 33.0264 35.6013 32.1848 35.9283C31.3703 36.2448 30.4391 36.4605 29.0765 36.5229C27.7111 36.5851 27.2762 36.6003 23.7996 36.6003C20.3236 36.6003 19.8876 36.5851 18.5222 36.5229C17.1598 36.4605 16.2294 36.2448 15.415 35.9283C14.5736 35.6013 13.8595 35.1629 13.1483 34.4509C12.4365 33.7394 11.9992 33.0253 11.672 32.1834C11.3557 31.3695 11.14 30.4394 11.0773 29.0767C11.0155 27.7114 11 27.2764 11 23.8001C11 20.3238 11.016 19.8873 11.0771 18.5219C11.1384 17.1598 11.3544 16.2294 11.6717 15.4152C11.9997 14.5736 12.4371 13.8595 13.1491 13.148C13.8606 12.4363 14.5747 11.9989 15.4166 11.672C16.2305 11.3555 17.1606 11.1397 18.5233 11.0773Z" fill="black"/>
<path fill-rule="evenodd" clip-rule="evenodd" d="M22.853 13.5071C23.0759 13.5068 23.3158 13.5069 23.5746 13.507L24.0013 13.5071C27.4189 13.5071 27.824 13.5194 29.1736 13.5807C30.4216 13.6378 31.0989 13.8463 31.5501 14.0215C32.1475 14.2535 32.5733 14.5309 33.0211 14.9789C33.4691 15.4269 33.7464 15.8535 33.979 16.4509C34.1542 16.9015 34.363 17.5789 34.4198 18.8269C34.4811 20.1762 34.4944 20.5816 34.4944 23.9976C34.4944 27.4137 34.4811 27.819 34.4198 29.1683C34.3627 30.4163 34.1542 31.0937 33.979 31.5444C33.747 32.1417 33.4691 32.567 33.0211 33.0148C32.5731 33.4628 32.1477 33.7401 31.5501 33.9721C31.0995 34.1481 30.4216 34.3561 29.1736 34.4132C27.8242 34.4745 27.4189 34.4879 24.0013 34.4879C20.5834 34.4879 20.1783 34.4745 18.8289 34.4132C17.5809 34.3556 16.9036 34.1471 16.4521 33.9719C15.8548 33.7399 15.4281 33.4625 14.9801 33.0145C14.5321 32.5665 14.2548 32.1409 14.0222 31.5433C13.847 31.0926 13.6382 30.4153 13.5814 29.1673C13.5201 27.8179 13.5078 27.4126 13.5078 23.9944C13.5078 20.5762 13.5201 20.173 13.5814 18.8237C13.6385 17.5757 13.847 16.8983 14.0222 16.4471C14.2542 15.8498 14.5321 15.4231 14.9801 14.9751C15.4281 14.5271 15.8548 14.2498 16.4521 14.0172C16.9033 13.8412 17.5809 13.6332 18.8289 13.5759C20.0097 13.5226 20.4674 13.5066 22.853 13.5039V13.5071ZM30.8339 15.6325C29.9859 15.6325 29.2978 16.3197 29.2978 17.1679C29.2978 18.016 29.9859 18.704 30.8339 18.704C31.6819 18.704 32.3699 18.016 32.3699 17.1679C32.3699 16.3199 31.6819 15.6319 30.8339 15.6319V15.6325ZM17.4279 24.0005C17.4279 20.3705 20.3709 17.4273 24.001 17.4271C27.6312 17.4271 30.5736 20.3704 30.5736 24.0005C30.5736 27.6307 27.6314 30.5726 24.0013 30.5726C20.3711 30.5726 17.4279 27.6307 17.4279 24.0005Z" fill="black"/>
<path d="M24.0011 19.7334C26.3574 19.7334 28.2678 21.6436 28.2678 24.0001C28.2678 26.3564 26.3574 28.2668 24.0011 28.2668C21.6445 28.2668 19.7344 26.3564 19.7344 24.0001C19.7344 21.6436 21.6445 19.7334 24.0011 19.7334V19.7334Z" fill="black"/>
</svg>
